<mxfile host="Electron" agent="Mozilla/5.0 (X11; Linux x86_64) AppleWebKit/537.36 (KHTML, like Gecko) draw.io/26.0.16 Chrome/132.0.6834.196 Electron/34.2.0 Safari/537.36" version="26.0.16" pages="3">
  <diagram name="ERD" id="r1abja0gSqFjvnmTV_5S">
    <mxGraphModel dx="1511" dy="696" grid="0" gridSize="10" guides="1" tooltips="1" connect="1" arrows="1" fold="1" page="0" pageScale="1" pageWidth="850" pageHeight="1100" math="0" shadow="0">
      <root>
        <mxCell id="0" />
        <mxCell id="1" parent="0" />
        <mxCell id="2w8DP8O-YQTc8IyeW_rN-4" value="Phản hồi" style="whiteSpace=wrap;html=1;align=center;fillColor=#B8B8B8;strokeColor=#9673a6;" parent="1" vertex="1">
          <mxGeometry x="333" y="573" width="100" height="40" as="geometry" />
        </mxCell>
        <mxCell id="2w8DP8O-YQTc8IyeW_rN-5" value="Báo cáo" style="whiteSpace=wrap;html=1;align=center;fillColor=#B8B8B8;strokeColor=#9673a6;" parent="1" vertex="1">
          <mxGeometry x="333" y="240" width="100" height="40" as="geometry" />
        </mxCell>
        <mxCell id="2w8DP8O-YQTc8IyeW_rN-6" value="Câu hỏi" style="whiteSpace=wrap;html=1;align=center;fillColor=#B8B8B8;strokeColor=#9673a6;" parent="1" vertex="1">
          <mxGeometry x="333" y="409" width="100" height="40" as="geometry" />
        </mxCell>
        <mxCell id="2w8DP8O-YQTc8IyeW_rN-7" value="Thành viên" style="whiteSpace=wrap;html=1;align=center;fillColor=#B8B8B8;strokeColor=#9673a6;" parent="1" vertex="1">
          <mxGeometry x="-103" y="387" width="138" height="72" as="geometry" />
        </mxCell>
        <mxCell id="2w8DP8O-YQTc8IyeW_rN-36" value="Gồm" style="shape=rhombus;perimeter=rhombusPerimeter;whiteSpace=wrap;html=1;align=center;fillColor=#EFEFEF;" parent="1" vertex="1">
          <mxGeometry x="335.5" y="484" width="95" height="56" as="geometry" />
        </mxCell>
        <mxCell id="2w8DP8O-YQTc8IyeW_rN-37" value="Đăng tải" style="shape=rhombus;perimeter=rhombusPerimeter;whiteSpace=wrap;html=1;align=center;fillColor=#EFEFEF;" parent="1" vertex="1">
          <mxGeometry x="145" y="318" width="95" height="56" as="geometry" />
        </mxCell>
        <mxCell id="2w8DP8O-YQTc8IyeW_rN-38" value="Cho" style="shape=rhombus;perimeter=rhombusPerimeter;whiteSpace=wrap;html=1;align=center;fillColor=#EFEFEF;" parent="1" vertex="1">
          <mxGeometry x="335.5" y="318" width="95" height="56" as="geometry" />
        </mxCell>
        <mxCell id="2w8DP8O-YQTc8IyeW_rN-39" value="Tạo" style="shape=rhombus;perimeter=rhombusPerimeter;whiteSpace=wrap;html=1;align=center;gradientColor=none;fillColor=#EFEFEF;" parent="1" vertex="1">
          <mxGeometry x="145" y="232" width="95" height="56" as="geometry" />
        </mxCell>
        <mxCell id="2w8DP8O-YQTc8IyeW_rN-40" value="" style="endArrow=none;html=1;rounded=0;entryX=0;entryY=0.5;entryDx=0;entryDy=0;exitX=0.75;exitY=0;exitDx=0;exitDy=0;" parent="1" source="2w8DP8O-YQTc8IyeW_rN-7" target="2w8DP8O-YQTc8IyeW_rN-39" edge="1">
          <mxGeometry relative="1" as="geometry">
            <mxPoint x="-68" y="329" as="sourcePoint" />
            <mxPoint x="242" y="346" as="targetPoint" />
            <Array as="points">
              <mxPoint x="1" y="260" />
            </Array>
          </mxGeometry>
        </mxCell>
        <mxCell id="2w8DP8O-YQTc8IyeW_rN-41" value="" style="endArrow=none;html=1;rounded=0;entryX=0;entryY=0.5;entryDx=0;entryDy=0;exitX=1;exitY=0.5;exitDx=0;exitDy=0;" parent="1" source="2w8DP8O-YQTc8IyeW_rN-39" target="2w8DP8O-YQTc8IyeW_rN-5" edge="1">
          <mxGeometry relative="1" as="geometry">
            <mxPoint x="89" y="429" as="sourcePoint" />
            <mxPoint x="249" y="429" as="targetPoint" />
          </mxGeometry>
        </mxCell>
        <mxCell id="2w8DP8O-YQTc8IyeW_rN-42" value="" style="endArrow=none;html=1;rounded=0;entryX=0.5;entryY=1;entryDx=0;entryDy=0;exitX=0.5;exitY=0;exitDx=0;exitDy=0;" parent="1" source="2w8DP8O-YQTc8IyeW_rN-38" target="2w8DP8O-YQTc8IyeW_rN-5" edge="1">
          <mxGeometry relative="1" as="geometry">
            <mxPoint x="171" y="367" as="sourcePoint" />
            <mxPoint x="331" y="367" as="targetPoint" />
          </mxGeometry>
        </mxCell>
        <mxCell id="2w8DP8O-YQTc8IyeW_rN-43" value="" style="endArrow=none;html=1;rounded=0;entryX=0.5;entryY=1;entryDx=0;entryDy=0;exitX=0.5;exitY=0;exitDx=0;exitDy=0;" parent="1" source="2w8DP8O-YQTc8IyeW_rN-6" target="2w8DP8O-YQTc8IyeW_rN-38" edge="1">
          <mxGeometry relative="1" as="geometry">
            <mxPoint x="393" y="328" as="sourcePoint" />
            <mxPoint x="393" y="290" as="targetPoint" />
          </mxGeometry>
        </mxCell>
        <mxCell id="2w8DP8O-YQTc8IyeW_rN-44" value="(1, 1)" style="text;html=1;align=center;verticalAlign=middle;resizable=0;points=[];autosize=1;strokeColor=none;fillColor=none;" parent="1" vertex="1">
          <mxGeometry x="383" y="381.5" width="46" height="26" as="geometry" />
        </mxCell>
        <mxCell id="2w8DP8O-YQTc8IyeW_rN-45" value="(0, n)" style="text;html=1;align=center;verticalAlign=middle;resizable=0;points=[];autosize=1;strokeColor=none;fillColor=none;" parent="1" vertex="1">
          <mxGeometry x="-46" y="361" width="46" height="26" as="geometry" />
        </mxCell>
        <mxCell id="2w8DP8O-YQTc8IyeW_rN-46" value="(1, 1)" style="text;html=1;align=center;verticalAlign=middle;resizable=0;points=[];autosize=1;strokeColor=none;fillColor=none;" parent="1" vertex="1">
          <mxGeometry x="383" y="280" width="46" height="26" as="geometry" />
        </mxCell>
        <mxCell id="2w8DP8O-YQTc8IyeW_rN-47" value="" style="endArrow=none;html=1;rounded=0;entryX=0;entryY=0.5;entryDx=0;entryDy=0;exitX=1;exitY=0.25;exitDx=0;exitDy=0;" parent="1" source="2w8DP8O-YQTc8IyeW_rN-7" target="2w8DP8O-YQTc8IyeW_rN-37" edge="1">
          <mxGeometry relative="1" as="geometry">
            <mxPoint x="125" y="436" as="sourcePoint" />
            <mxPoint x="176" y="377" as="targetPoint" />
            <Array as="points">
              <mxPoint x="99" y="405" />
              <mxPoint x="99" y="346" />
            </Array>
          </mxGeometry>
        </mxCell>
        <mxCell id="2w8DP8O-YQTc8IyeW_rN-50" value="(0, n)" style="text;html=1;align=center;verticalAlign=middle;resizable=0;points=[];autosize=1;strokeColor=none;fillColor=none;" parent="1" vertex="1">
          <mxGeometry x="35" y="377" width="46" height="26" as="geometry" />
        </mxCell>
        <mxCell id="2w8DP8O-YQTc8IyeW_rN-51" value="" style="endArrow=none;html=1;rounded=0;exitX=1;exitY=0.5;exitDx=0;exitDy=0;entryX=0;entryY=0.25;entryDx=0;entryDy=0;" parent="1" source="2w8DP8O-YQTc8IyeW_rN-37" target="2w8DP8O-YQTc8IyeW_rN-6" edge="1">
          <mxGeometry relative="1" as="geometry">
            <mxPoint x="166" y="514" as="sourcePoint" />
            <mxPoint x="290" y="390" as="targetPoint" />
            <Array as="points">
              <mxPoint x="285" y="346" />
              <mxPoint x="285" y="419" />
            </Array>
          </mxGeometry>
        </mxCell>
        <mxCell id="2w8DP8O-YQTc8IyeW_rN-52" value="(1, 1)" style="text;html=1;align=center;verticalAlign=middle;resizable=0;points=[];autosize=1;strokeColor=none;fillColor=none;" parent="1" vertex="1">
          <mxGeometry x="287" y="392" width="46" height="26" as="geometry" />
        </mxCell>
        <mxCell id="2w8DP8O-YQTc8IyeW_rN-53" value="(1, 1)" style="text;html=1;align=center;verticalAlign=middle;resizable=0;points=[];autosize=1;strokeColor=none;fillColor=none;" parent="1" vertex="1">
          <mxGeometry x="287" y="234" width="46" height="26" as="geometry" />
        </mxCell>
        <mxCell id="2w8DP8O-YQTc8IyeW_rN-54" value="" style="endArrow=none;html=1;rounded=0;entryX=0.5;entryY=1;entryDx=0;entryDy=0;exitX=0.5;exitY=0;exitDx=0;exitDy=0;" parent="1" source="2w8DP8O-YQTc8IyeW_rN-36" target="2w8DP8O-YQTc8IyeW_rN-6" edge="1">
          <mxGeometry relative="1" as="geometry">
            <mxPoint x="130" y="516" as="sourcePoint" />
            <mxPoint x="290" y="516" as="targetPoint" />
          </mxGeometry>
        </mxCell>
        <mxCell id="2w8DP8O-YQTc8IyeW_rN-55" value="" style="endArrow=none;html=1;rounded=0;exitX=0.5;exitY=1;exitDx=0;exitDy=0;entryX=0.5;entryY=0;entryDx=0;entryDy=0;" parent="1" source="2w8DP8O-YQTc8IyeW_rN-36" target="2w8DP8O-YQTc8IyeW_rN-4" edge="1">
          <mxGeometry relative="1" as="geometry">
            <mxPoint x="283" y="552" as="sourcePoint" />
            <mxPoint x="443" y="552" as="targetPoint" />
          </mxGeometry>
        </mxCell>
        <mxCell id="2w8DP8O-YQTc8IyeW_rN-56" value="(0, n)" style="text;html=1;align=center;verticalAlign=middle;resizable=0;points=[];autosize=1;strokeColor=none;fillColor=none;" parent="1" vertex="1">
          <mxGeometry x="383" y="449" width="46" height="26" as="geometry" />
        </mxCell>
        <mxCell id="2w8DP8O-YQTc8IyeW_rN-57" value="(1, 1)" style="text;html=1;align=center;verticalAlign=middle;resizable=0;points=[];autosize=1;strokeColor=none;fillColor=none;" parent="1" vertex="1">
          <mxGeometry x="383" y="547" width="46" height="26" as="geometry" />
        </mxCell>
        <mxCell id="2w8DP8O-YQTc8IyeW_rN-59" value="" style="endArrow=none;html=1;rounded=0;exitX=0.75;exitY=1;exitDx=0;exitDy=0;entryX=0;entryY=0.5;entryDx=0;entryDy=0;" parent="1" source="2w8DP8O-YQTc8IyeW_rN-7" target="2w8DP8O-YQTc8IyeW_rN-60" edge="1">
          <mxGeometry relative="1" as="geometry">
            <mxPoint x="85" y="546" as="sourcePoint" />
            <mxPoint x="53" y="586" as="targetPoint" />
            <Array as="points">
              <mxPoint x="1" y="593" />
            </Array>
          </mxGeometry>
        </mxCell>
        <mxCell id="2w8DP8O-YQTc8IyeW_rN-60" value="Tạo" style="shape=rhombus;perimeter=rhombusPerimeter;whiteSpace=wrap;html=1;align=center;fillColor=#EFEFEF;" parent="1" vertex="1">
          <mxGeometry x="145" y="565" width="95" height="56" as="geometry" />
        </mxCell>
        <mxCell id="2w8DP8O-YQTc8IyeW_rN-61" value="" style="endArrow=none;html=1;rounded=0;entryX=0;entryY=0.5;entryDx=0;entryDy=0;exitX=1;exitY=0.5;exitDx=0;exitDy=0;" parent="1" source="2w8DP8O-YQTc8IyeW_rN-60" target="2w8DP8O-YQTc8IyeW_rN-4" edge="1">
          <mxGeometry relative="1" as="geometry">
            <mxPoint x="259" y="565" as="sourcePoint" />
            <mxPoint x="342" y="565" as="targetPoint" />
          </mxGeometry>
        </mxCell>
        <mxCell id="2w8DP8O-YQTc8IyeW_rN-62" value="(0, n)" style="text;html=1;align=center;verticalAlign=middle;resizable=0;points=[];autosize=1;strokeColor=none;fillColor=none;" parent="1" vertex="1">
          <mxGeometry y="469" width="46" height="26" as="geometry" />
        </mxCell>
        <mxCell id="2w8DP8O-YQTc8IyeW_rN-64" value="(1, 1)" style="text;html=1;align=center;verticalAlign=middle;resizable=0;points=[];autosize=1;strokeColor=none;fillColor=none;" parent="1" vertex="1">
          <mxGeometry x="287" y="567" width="46" height="26" as="geometry" />
        </mxCell>
        <mxCell id="2w8DP8O-YQTc8IyeW_rN-65" value="" style="endArrow=none;html=1;rounded=0;exitX=1;exitY=0.75;exitDx=0;exitDy=0;entryX=0;entryY=0.5;entryDx=0;entryDy=0;" parent="1" source="2w8DP8O-YQTc8IyeW_rN-7" target="2w8DP8O-YQTc8IyeW_rN-66" edge="1">
          <mxGeometry relative="1" as="geometry">
            <mxPoint x="35" y="452.75000000000006" as="sourcePoint" />
            <mxPoint x="150" y="492" as="targetPoint" />
            <Array as="points">
              <mxPoint x="100" y="441" />
              <mxPoint x="100" y="491" />
            </Array>
          </mxGeometry>
        </mxCell>
        <mxCell id="2w8DP8O-YQTc8IyeW_rN-66" value="Bình chọn" style="shape=rhombus;perimeter=rhombusPerimeter;whiteSpace=wrap;html=1;align=center;fillColor=#EFEFEF;" parent="1" vertex="1">
          <mxGeometry x="145" y="463" width="95" height="56" as="geometry" />
        </mxCell>
        <mxCell id="2w8DP8O-YQTc8IyeW_rN-68" value="" style="endArrow=none;html=1;rounded=0;entryX=0;entryY=0.75;entryDx=0;entryDy=0;exitX=1;exitY=0.5;exitDx=0;exitDy=0;" parent="1" source="2w8DP8O-YQTc8IyeW_rN-66" target="2w8DP8O-YQTc8IyeW_rN-6" edge="1">
          <mxGeometry relative="1" as="geometry">
            <mxPoint x="159" y="526" as="sourcePoint" />
            <mxPoint x="319" y="526" as="targetPoint" />
            <Array as="points">
              <mxPoint x="285" y="491" />
              <mxPoint x="285" y="439" />
            </Array>
          </mxGeometry>
        </mxCell>
        <mxCell id="2w8DP8O-YQTc8IyeW_rN-69" value="(0, n)" style="text;html=1;align=center;verticalAlign=middle;resizable=0;points=[];autosize=1;strokeColor=none;fillColor=none;" parent="1" vertex="1">
          <mxGeometry x="285" y="441" width="46" height="26" as="geometry" />
        </mxCell>
        <mxCell id="2w8DP8O-YQTc8IyeW_rN-70" value="(0, n)" style="text;html=1;align=center;verticalAlign=middle;resizable=0;points=[];autosize=1;strokeColor=none;fillColor=none;" parent="1" vertex="1">
          <mxGeometry x="34.5" y="441" width="46" height="26" as="geometry" />
        </mxCell>
        <mxCell id="2w8DP8O-YQTc8IyeW_rN-71" value="" style="endArrow=none;html=1;rounded=0;exitX=0.5;exitY=1;exitDx=0;exitDy=0;entryX=0;entryY=0.5;entryDx=0;entryDy=0;" parent="1" source="2w8DP8O-YQTc8IyeW_rN-7" target="2w8DP8O-YQTc8IyeW_rN-73" edge="1">
          <mxGeometry relative="1" as="geometry">
            <mxPoint x="-88" y="535" as="sourcePoint" />
            <mxPoint x="-62" y="657.4248744419643" as="targetPoint" />
            <Array as="points">
              <mxPoint x="-34" y="676" />
            </Array>
          </mxGeometry>
        </mxCell>
        <mxCell id="2w8DP8O-YQTc8IyeW_rN-73" value="Bình chọn" style="shape=rhombus;perimeter=rhombusPerimeter;whiteSpace=wrap;html=1;align=center;fillColor=#EFEFEF;" parent="1" vertex="1">
          <mxGeometry x="145" y="647" width="95" height="56" as="geometry" />
        </mxCell>
        <mxCell id="2w8DP8O-YQTc8IyeW_rN-74" value="(0, n)" style="text;html=1;align=center;verticalAlign=middle;resizable=0;points=[];autosize=1;strokeColor=none;fillColor=none;" parent="1" vertex="1">
          <mxGeometry x="-79" y="469" width="46" height="26" as="geometry" />
        </mxCell>
        <mxCell id="2w8DP8O-YQTc8IyeW_rN-75" value="" style="endArrow=none;html=1;rounded=0;exitX=1;exitY=0.5;exitDx=0;exitDy=0;entryX=0.5;entryY=1;entryDx=0;entryDy=0;" parent="1" source="2w8DP8O-YQTc8IyeW_rN-73" target="2w8DP8O-YQTc8IyeW_rN-4" edge="1">
          <mxGeometry relative="1" as="geometry">
            <mxPoint x="-52" y="469" as="sourcePoint" />
            <mxPoint x="155" y="696" as="targetPoint" />
            <Array as="points">
              <mxPoint x="383" y="675" />
            </Array>
          </mxGeometry>
        </mxCell>
        <mxCell id="2w8DP8O-YQTc8IyeW_rN-76" value="(0, n)" style="text;html=1;align=center;verticalAlign=middle;resizable=0;points=[];autosize=1;strokeColor=none;fillColor=none;" parent="1" vertex="1">
          <mxGeometry x="384.5" y="613" width="46" height="26" as="geometry" />
        </mxCell>
      </root>
    </mxGraphModel>
  </diagram>
  <diagram id="ZfC-3j3Mio5eV6MNHV0a" name="Usecase">
    <mxGraphModel dx="1526" dy="980" grid="0" gridSize="10" guides="1" tooltips="1" connect="1" arrows="1" fold="1" page="0" pageScale="1" pageWidth="850" pageHeight="1100" math="0" shadow="0">
      <root>
        <mxCell id="0" />
        <mxCell id="1" parent="0" />
        <mxCell id="taDVh_5EvfRSxTinrCyL-2" value="Người dùng&lt;div&gt;khách&lt;/div&gt;" style="shape=umlActor;verticalLabelPosition=bottom;verticalAlign=top;html=1;" parent="1" vertex="1">
          <mxGeometry x="192" y="253" width="30" height="60" as="geometry" />
        </mxCell>
        <mxCell id="taDVh_5EvfRSxTinrCyL-5" value="System - General" style="shape=umlFrame;whiteSpace=wrap;html=1;pointerEvents=0;fillColor=default;strokeColor=#6c8ebf;gradientColor=none;swimlaneFillColor=none;width=109;height=31;" parent="1" vertex="1">
          <mxGeometry x="317" y="78" width="604" height="599" as="geometry" />
        </mxCell>
        <mxCell id="taDVh_5EvfRSxTinrCyL-6" value="Thành viên&lt;div&gt;đặt câu hỏi&lt;/div&gt;" style="shape=umlActor;verticalLabelPosition=bottom;verticalAlign=top;html=1;" parent="1" vertex="1">
          <mxGeometry x="187" y="883" width="30" height="60" as="geometry" />
        </mxCell>
        <mxCell id="taDVh_5EvfRSxTinrCyL-8" value="Quản trị viên" style="shape=umlActor;verticalLabelPosition=bottom;verticalAlign=top;html=1;" parent="1" vertex="1">
          <mxGeometry x="958" y="309" width="30" height="60" as="geometry" />
        </mxCell>
        <mxCell id="taDVh_5EvfRSxTinrCyL-33" value="Xem câu hỏi, giải đáp, phản hồi" style="ellipse;whiteSpace=wrap;html=1;" parent="1" vertex="1">
          <mxGeometry x="400" y="357" width="108" height="54" as="geometry" />
        </mxCell>
        <mxCell id="taDVh_5EvfRSxTinrCyL-34" value="Xem lịch sử&amp;nbsp;&lt;div&gt;chỉnh sửa&lt;/div&gt;" style="ellipse;whiteSpace=wrap;html=1;" parent="1" vertex="1">
          <mxGeometry x="595" y="369" width="108" height="54" as="geometry" />
        </mxCell>
        <mxCell id="taDVh_5EvfRSxTinrCyL-35" value="Đăng ký tài khoản" style="ellipse;whiteSpace=wrap;html=1;" parent="1" vertex="1">
          <mxGeometry x="479" y="174" width="108" height="54" as="geometry" />
        </mxCell>
        <mxCell id="taDVh_5EvfRSxTinrCyL-36" value="Đăng nhập" style="ellipse;whiteSpace=wrap;html=1;" parent="1" vertex="1">
          <mxGeometry x="487" y="108" width="108" height="54" as="geometry" />
        </mxCell>
        <mxCell id="taDVh_5EvfRSxTinrCyL-37" value="Xem hồ sơ các thành viên diễn đàn" style="ellipse;whiteSpace=wrap;html=1;" parent="1" vertex="1">
          <mxGeometry x="387" y="484" width="108" height="54" as="geometry" />
        </mxCell>
        <mxCell id="taDVh_5EvfRSxTinrCyL-38" value="Thiết lập cài đặt hiển thị" style="ellipse;whiteSpace=wrap;html=1;" parent="1" vertex="1">
          <mxGeometry x="420" y="426" width="108" height="54" as="geometry" />
        </mxCell>
        <mxCell id="taDVh_5EvfRSxTinrCyL-39" value="Tìm kiếm câu hỏi" style="ellipse;whiteSpace=wrap;html=1;" parent="1" vertex="1">
          <mxGeometry x="476" y="246" width="108" height="54" as="geometry" />
        </mxCell>
        <mxCell id="taDVh_5EvfRSxTinrCyL-40" value="Xem danh sách&amp;nbsp;&lt;div&gt;&lt;span style=&quot;background-color: transparent; color: light-dark(rgb(0, 0, 0), rgb(255, 255, 255));&quot;&gt;câu hỏi theo thẻ chủ đề&lt;/span&gt;&lt;/div&gt;" style="ellipse;whiteSpace=wrap;html=1;" parent="1" vertex="1">
          <mxGeometry x="472" y="309" width="108" height="54" as="geometry" />
        </mxCell>
        <mxCell id="tAdImDgAZCHXtS06YGoJ-12" value="&amp;lt;&amp;lt;extend&amp;gt;&amp;gt;" style="endArrow=open;endSize=12;dashed=1;html=1;rounded=0;" parent="1" edge="1">
          <mxGeometry width="160" relative="1" as="geometry">
            <mxPoint x="98" y="-169" as="sourcePoint" />
            <mxPoint x="1" y="-183" as="targetPoint" />
          </mxGeometry>
        </mxCell>
        <mxCell id="tAdImDgAZCHXtS06YGoJ-13" value="&amp;lt;&amp;lt;extend&amp;gt;&amp;gt;" style="endArrow=open;endSize=12;dashed=1;html=1;rounded=0;entryX=1;entryY=0.5;entryDx=0;entryDy=0;exitX=0;exitY=0.5;exitDx=0;exitDy=0;" parent="1" source="taDVh_5EvfRSxTinrCyL-34" target="taDVh_5EvfRSxTinrCyL-33" edge="1">
          <mxGeometry width="160" relative="1" as="geometry">
            <mxPoint x="611" y="378" as="sourcePoint" />
            <mxPoint x="494.00000000000364" y="386" as="targetPoint" />
          </mxGeometry>
        </mxCell>
        <mxCell id="tAdImDgAZCHXtS06YGoJ-14" value="" style="endArrow=none;html=1;rounded=0;entryX=0;entryY=0.5;entryDx=0;entryDy=0;exitX=0.5;exitY=0.5;exitDx=0;exitDy=0;exitPerimeter=0;" parent="1" source="taDVh_5EvfRSxTinrCyL-2" target="taDVh_5EvfRSxTinrCyL-36" edge="1">
          <mxGeometry width="50" height="50" relative="1" as="geometry">
            <mxPoint x="264" y="264" as="sourcePoint" />
            <mxPoint x="314" y="214" as="targetPoint" />
          </mxGeometry>
        </mxCell>
        <mxCell id="tAdImDgAZCHXtS06YGoJ-15" value="" style="endArrow=none;html=1;rounded=0;entryX=0;entryY=0.5;entryDx=0;entryDy=0;exitX=0.5;exitY=0.5;exitDx=0;exitDy=0;exitPerimeter=0;" parent="1" source="taDVh_5EvfRSxTinrCyL-2" target="taDVh_5EvfRSxTinrCyL-35" edge="1">
          <mxGeometry width="50" height="50" relative="1" as="geometry">
            <mxPoint x="329" y="232" as="sourcePoint" />
            <mxPoint x="379" y="182" as="targetPoint" />
          </mxGeometry>
        </mxCell>
        <mxCell id="tAdImDgAZCHXtS06YGoJ-16" value="" style="endArrow=none;html=1;rounded=0;entryX=0;entryY=0.5;entryDx=0;entryDy=0;exitX=0.5;exitY=0.5;exitDx=0;exitDy=0;exitPerimeter=0;" parent="1" source="taDVh_5EvfRSxTinrCyL-2" target="taDVh_5EvfRSxTinrCyL-39" edge="1">
          <mxGeometry width="50" height="50" relative="1" as="geometry">
            <mxPoint x="124" y="219" as="sourcePoint" />
            <mxPoint x="174" y="169" as="targetPoint" />
          </mxGeometry>
        </mxCell>
        <mxCell id="tAdImDgAZCHXtS06YGoJ-17" value="" style="endArrow=none;html=1;rounded=0;entryX=0;entryY=0.5;entryDx=0;entryDy=0;exitX=0.5;exitY=0.5;exitDx=0;exitDy=0;exitPerimeter=0;" parent="1" source="taDVh_5EvfRSxTinrCyL-2" target="taDVh_5EvfRSxTinrCyL-40" edge="1">
          <mxGeometry width="50" height="50" relative="1" as="geometry">
            <mxPoint x="210" y="202" as="sourcePoint" />
            <mxPoint x="260" y="152" as="targetPoint" />
          </mxGeometry>
        </mxCell>
        <mxCell id="tAdImDgAZCHXtS06YGoJ-18" value="" style="endArrow=none;html=1;rounded=0;entryX=0;entryY=0.5;entryDx=0;entryDy=0;exitX=0.5;exitY=0.5;exitDx=0;exitDy=0;exitPerimeter=0;" parent="1" source="taDVh_5EvfRSxTinrCyL-2" target="taDVh_5EvfRSxTinrCyL-33" edge="1">
          <mxGeometry width="50" height="50" relative="1" as="geometry">
            <mxPoint x="217" y="265" as="sourcePoint" />
            <mxPoint x="433" y="296" as="targetPoint" />
          </mxGeometry>
        </mxCell>
        <mxCell id="tAdImDgAZCHXtS06YGoJ-19" value="" style="endArrow=none;html=1;rounded=0;entryX=0;entryY=0.5;entryDx=0;entryDy=0;exitX=0.5;exitY=0.5;exitDx=0;exitDy=0;exitPerimeter=0;" parent="1" source="taDVh_5EvfRSxTinrCyL-2" target="taDVh_5EvfRSxTinrCyL-38" edge="1">
          <mxGeometry width="50" height="50" relative="1" as="geometry">
            <mxPoint x="54" y="348" as="sourcePoint" />
            <mxPoint x="104" y="298" as="targetPoint" />
          </mxGeometry>
        </mxCell>
        <mxCell id="tAdImDgAZCHXtS06YGoJ-20" value="" style="endArrow=none;html=1;rounded=0;exitX=0;exitY=0.5;exitDx=0;exitDy=0;entryX=0.5;entryY=0.5;entryDx=0;entryDy=0;entryPerimeter=0;" parent="1" source="taDVh_5EvfRSxTinrCyL-37" target="taDVh_5EvfRSxTinrCyL-2" edge="1">
          <mxGeometry width="50" height="50" relative="1" as="geometry">
            <mxPoint x="45" y="516" as="sourcePoint" />
            <mxPoint x="95" y="466" as="targetPoint" />
          </mxGeometry>
        </mxCell>
        <mxCell id="tAdImDgAZCHXtS06YGoJ-27" value="Bình chọn giải đáp" style="ellipse;whiteSpace=wrap;html=1;" parent="1" vertex="1">
          <mxGeometry x="459" y="1096" width="108" height="54" as="geometry" />
        </mxCell>
        <mxCell id="tAdImDgAZCHXtS06YGoJ-28" value="Giải đáp câu hỏi" style="ellipse;whiteSpace=wrap;html=1;" parent="1" vertex="1">
          <mxGeometry x="459" y="961" width="108" height="54" as="geometry" />
        </mxCell>
        <mxCell id="tAdImDgAZCHXtS06YGoJ-29" value="Đặt câu hỏi" style="ellipse;whiteSpace=wrap;html=1;" parent="1" vertex="1">
          <mxGeometry x="387" y="772" width="108" height="54" as="geometry" />
        </mxCell>
        <mxCell id="tAdImDgAZCHXtS06YGoJ-35" value="" style="endArrow=none;html=1;rounded=0;entryX=0.5;entryY=0.5;entryDx=0;entryDy=0;entryPerimeter=0;" parent="1" edge="1">
          <mxGeometry width="50" height="50" relative="1" as="geometry">
            <mxPoint x="152" y="-63" as="sourcePoint" />
            <mxPoint x="42" y="-84" as="targetPoint" />
          </mxGeometry>
        </mxCell>
        <mxCell id="tAdImDgAZCHXtS06YGoJ-36" value="" style="endArrow=none;html=1;rounded=0;entryX=1;entryY=0.5;entryDx=0;entryDy=0;exitX=0.5;exitY=0.5;exitDx=0;exitDy=0;exitPerimeter=0;" parent="1" source="tAdImDgAZCHXtS06YGoJ-48" target="tAdImDgAZCHXtS06YGoJ-68" edge="1">
          <mxGeometry width="50" height="50" relative="1" as="geometry">
            <mxPoint x="-57" y="773" as="sourcePoint" />
            <mxPoint x="-167" y="752" as="targetPoint" />
          </mxGeometry>
        </mxCell>
        <mxCell id="tAdImDgAZCHXtS06YGoJ-37" value="" style="endArrow=none;html=1;rounded=0;entryX=1;entryY=0.5;entryDx=0;entryDy=0;exitX=0.5;exitY=0.5;exitDx=0;exitDy=0;exitPerimeter=0;" parent="1" source="tAdImDgAZCHXtS06YGoJ-48" target="tAdImDgAZCHXtS06YGoJ-43" edge="1">
          <mxGeometry width="50" height="50" relative="1" as="geometry">
            <mxPoint x="-47" y="783" as="sourcePoint" />
            <mxPoint x="-157" y="762" as="targetPoint" />
          </mxGeometry>
        </mxCell>
        <mxCell id="tAdImDgAZCHXtS06YGoJ-39" value="Chấp nhận giải đáp" style="ellipse;whiteSpace=wrap;html=1;" parent="1" vertex="1">
          <mxGeometry x="387" y="901" width="108" height="54" as="geometry" />
        </mxCell>
        <mxCell id="tAdImDgAZCHXtS06YGoJ-40" value="Chỉnh sửa câu hỏi" style="ellipse;whiteSpace=wrap;html=1;" parent="1" vertex="1">
          <mxGeometry x="389" y="835" width="108" height="54" as="geometry" />
        </mxCell>
        <mxCell id="tAdImDgAZCHXtS06YGoJ-42" value="Phản hồi giải đáp" style="ellipse;whiteSpace=wrap;html=1;" parent="1" vertex="1">
          <mxGeometry x="459" y="1026" width="108" height="54" as="geometry" />
        </mxCell>
        <mxCell id="tAdImDgAZCHXtS06YGoJ-43" value="Báo cáo câu hỏi" style="ellipse;whiteSpace=wrap;html=1;" parent="1" vertex="1">
          <mxGeometry x="534" y="837" width="108" height="54" as="geometry" />
        </mxCell>
        <mxCell id="tAdImDgAZCHXtS06YGoJ-44" value="Chỉnh sửa giải đáp/phản hồi" style="ellipse;whiteSpace=wrap;html=1;" parent="1" vertex="1">
          <mxGeometry x="530" y="775" width="108" height="54" as="geometry" />
        </mxCell>
        <mxCell id="tAdImDgAZCHXtS06YGoJ-48" value="Thành viên&lt;div&gt;xem và đóng góp&lt;/div&gt;" style="shape=umlActor;verticalLabelPosition=bottom;verticalAlign=top;html=1;" parent="1" vertex="1">
          <mxGeometry x="862" y="883" width="30" height="60" as="geometry" />
        </mxCell>
        <mxCell id="tAdImDgAZCHXtS06YGoJ-49" value="" style="endArrow=none;html=1;rounded=0;entryX=1;entryY=0.5;entryDx=0;entryDy=0;exitX=0.5;exitY=0.5;exitDx=0;exitDy=0;exitPerimeter=0;" parent="1" source="tAdImDgAZCHXtS06YGoJ-48" target="tAdImDgAZCHXtS06YGoJ-44" edge="1">
          <mxGeometry width="50" height="50" relative="1" as="geometry">
            <mxPoint x="-37" y="793" as="sourcePoint" />
            <mxPoint x="-147" y="772" as="targetPoint" />
          </mxGeometry>
        </mxCell>
        <mxCell id="tAdImDgAZCHXtS06YGoJ-50" value="" style="endArrow=none;html=1;rounded=0;entryX=0.5;entryY=0.5;entryDx=0;entryDy=0;entryPerimeter=0;exitX=1;exitY=0.5;exitDx=0;exitDy=0;" parent="1" source="tAdImDgAZCHXtS06YGoJ-27" target="tAdImDgAZCHXtS06YGoJ-48" edge="1">
          <mxGeometry width="50" height="50" relative="1" as="geometry">
            <mxPoint x="-101" y="891" as="sourcePoint" />
            <mxPoint x="-211" y="870" as="targetPoint" />
          </mxGeometry>
        </mxCell>
        <mxCell id="tAdImDgAZCHXtS06YGoJ-51" value="" style="endArrow=none;html=1;rounded=0;entryX=0.5;entryY=0.5;entryDx=0;entryDy=0;entryPerimeter=0;exitX=0;exitY=0.5;exitDx=0;exitDy=0;" parent="1" source="tAdImDgAZCHXtS06YGoJ-27" target="taDVh_5EvfRSxTinrCyL-6" edge="1">
          <mxGeometry width="50" height="50" relative="1" as="geometry">
            <mxPoint x="-91" y="901" as="sourcePoint" />
            <mxPoint x="-201" y="880" as="targetPoint" />
          </mxGeometry>
        </mxCell>
        <mxCell id="tAdImDgAZCHXtS06YGoJ-52" value="" style="endArrow=none;html=1;rounded=0;entryX=0.5;entryY=0.5;entryDx=0;entryDy=0;entryPerimeter=0;exitX=0;exitY=0.5;exitDx=0;exitDy=0;" parent="1" source="tAdImDgAZCHXtS06YGoJ-40" target="taDVh_5EvfRSxTinrCyL-6" edge="1">
          <mxGeometry width="50" height="50" relative="1" as="geometry">
            <mxPoint x="-81" y="911" as="sourcePoint" />
            <mxPoint x="-191" y="890" as="targetPoint" />
          </mxGeometry>
        </mxCell>
        <mxCell id="tAdImDgAZCHXtS06YGoJ-53" value="" style="endArrow=none;html=1;rounded=0;entryX=0.5;entryY=0.5;entryDx=0;entryDy=0;entryPerimeter=0;exitX=0;exitY=0.5;exitDx=0;exitDy=0;" parent="1" source="tAdImDgAZCHXtS06YGoJ-39" target="taDVh_5EvfRSxTinrCyL-6" edge="1">
          <mxGeometry width="50" height="50" relative="1" as="geometry">
            <mxPoint x="-71" y="921" as="sourcePoint" />
            <mxPoint x="-181" y="900" as="targetPoint" />
          </mxGeometry>
        </mxCell>
        <mxCell id="tAdImDgAZCHXtS06YGoJ-54" value="" style="endArrow=none;html=1;rounded=0;entryX=0.5;entryY=0.5;entryDx=0;entryDy=0;entryPerimeter=0;exitX=0;exitY=0.5;exitDx=0;exitDy=0;" parent="1" source="tAdImDgAZCHXtS06YGoJ-29" target="taDVh_5EvfRSxTinrCyL-6" edge="1">
          <mxGeometry width="50" height="50" relative="1" as="geometry">
            <mxPoint x="-61" y="931" as="sourcePoint" />
            <mxPoint x="-171" y="910" as="targetPoint" />
          </mxGeometry>
        </mxCell>
        <mxCell id="tAdImDgAZCHXtS06YGoJ-59" value="" style="endArrow=none;html=1;rounded=0;entryX=1;entryY=0.5;entryDx=0;entryDy=0;exitX=0.5;exitY=0.5;exitDx=0;exitDy=0;exitPerimeter=0;" parent="1" source="tAdImDgAZCHXtS06YGoJ-48" target="tAdImDgAZCHXtS06YGoJ-42" edge="1">
          <mxGeometry width="50" height="50" relative="1" as="geometry">
            <mxPoint x="-17" y="813" as="sourcePoint" />
            <mxPoint x="-127" y="792" as="targetPoint" />
          </mxGeometry>
        </mxCell>
        <mxCell id="tAdImDgAZCHXtS06YGoJ-62" value="" style="endArrow=none;html=1;rounded=0;entryX=0.5;entryY=0.5;entryDx=0;entryDy=0;entryPerimeter=0;exitX=1;exitY=0.5;exitDx=0;exitDy=0;" parent="1" source="tAdImDgAZCHXtS06YGoJ-28" target="tAdImDgAZCHXtS06YGoJ-48" edge="1">
          <mxGeometry width="50" height="50" relative="1" as="geometry">
            <mxPoint x="25" y="1069" as="sourcePoint" />
            <mxPoint x="-85" y="1048" as="targetPoint" />
          </mxGeometry>
        </mxCell>
        <mxCell id="tAdImDgAZCHXtS06YGoJ-63" value="System - Q&amp;amp;A" style="shape=umlFrame;whiteSpace=wrap;html=1;pointerEvents=0;fillColor=default;strokeColor=#6c8ebf;gradientColor=none;swimlaneFillColor=none;width=111;height=27;" parent="1" vertex="1">
          <mxGeometry x="312" y="732" width="428" height="512" as="geometry" />
        </mxCell>
        <mxCell id="tAdImDgAZCHXtS06YGoJ-68" value="Bình chọn câu hỏi" style="ellipse;whiteSpace=wrap;html=1;" parent="1" vertex="1">
          <mxGeometry x="534" y="901" width="108" height="54" as="geometry" />
        </mxCell>
        <mxCell id="tAdImDgAZCHXtS06YGoJ-69" value="Báo cáo giải đáp/&lt;div&gt;phản hồi&lt;/div&gt;" style="ellipse;whiteSpace=wrap;html=1;" parent="1" vertex="1">
          <mxGeometry x="459" y="1166" width="108" height="54" as="geometry" />
        </mxCell>
        <mxCell id="tAdImDgAZCHXtS06YGoJ-71" value="" style="endArrow=none;html=1;rounded=0;entryX=1;entryY=0.5;entryDx=0;entryDy=0;exitX=0.5;exitY=0.5;exitDx=0;exitDy=0;exitPerimeter=0;" parent="1" source="taDVh_5EvfRSxTinrCyL-8" target="taDVh_5EvfRSxTinrCyL-36" edge="1">
          <mxGeometry width="50" height="50" relative="1" as="geometry">
            <mxPoint x="1029" y="14" as="sourcePoint" />
            <mxPoint x="919" y="-7" as="targetPoint" />
          </mxGeometry>
        </mxCell>
        <mxCell id="tAdImDgAZCHXtS06YGoJ-72" value="" style="endArrow=none;html=1;rounded=0;entryX=0.5;entryY=0.5;entryDx=0;entryDy=0;entryPerimeter=0;exitX=0;exitY=0.5;exitDx=0;exitDy=0;" parent="1" source="tAdImDgAZCHXtS06YGoJ-78" target="tAdImDgAZCHXtS06YGoJ-76" edge="1">
          <mxGeometry width="50" height="50" relative="1" as="geometry">
            <mxPoint x="304" y="719" as="sourcePoint" />
            <mxPoint x="194" y="698" as="targetPoint" />
          </mxGeometry>
        </mxCell>
        <mxCell id="tAdImDgAZCHXtS06YGoJ-73" value="" style="endArrow=none;html=1;rounded=0;entryX=0.5;entryY=0.5;entryDx=0;entryDy=0;entryPerimeter=0;exitX=0;exitY=0.5;exitDx=0;exitDy=0;" parent="1" source="tAdImDgAZCHXtS06YGoJ-69" target="taDVh_5EvfRSxTinrCyL-6" edge="1">
          <mxGeometry width="50" height="50" relative="1" as="geometry">
            <mxPoint x="271" y="1152.5" as="sourcePoint" />
            <mxPoint x="161" y="1131.5" as="targetPoint" />
          </mxGeometry>
        </mxCell>
        <mxCell id="tAdImDgAZCHXtS06YGoJ-74" value="" style="endArrow=none;html=1;rounded=0;exitX=0.5;exitY=0.5;exitDx=0;exitDy=0;exitPerimeter=0;entryX=1;entryY=0.5;entryDx=0;entryDy=0;" parent="1" source="tAdImDgAZCHXtS06YGoJ-48" target="tAdImDgAZCHXtS06YGoJ-69" edge="1">
          <mxGeometry width="50" height="50" relative="1" as="geometry">
            <mxPoint x="-27" y="803" as="sourcePoint" />
            <mxPoint x="830" y="1234.6969604492188" as="targetPoint" />
          </mxGeometry>
        </mxCell>
        <mxCell id="tAdImDgAZCHXtS06YGoJ-76" value="Thành viên diễn đàn" style="shape=umlActor;verticalLabelPosition=bottom;verticalAlign=top;html=1;" parent="1" vertex="1">
          <mxGeometry x="192" y="563" width="30" height="60" as="geometry" />
        </mxCell>
        <mxCell id="tAdImDgAZCHXtS06YGoJ-77" value="" style="endArrow=block;endSize=16;endFill=0;html=1;rounded=0;" parent="1" edge="1">
          <mxGeometry width="160" relative="1" as="geometry">
            <mxPoint x="207" y="548" as="sourcePoint" />
            <mxPoint x="207" y="354" as="targetPoint" />
          </mxGeometry>
        </mxCell>
        <mxCell id="tAdImDgAZCHXtS06YGoJ-78" value="Quản lý hồ sơ cá nhân" style="ellipse;whiteSpace=wrap;html=1;" parent="1" vertex="1">
          <mxGeometry x="487" y="529" width="108" height="54" as="geometry" />
        </mxCell>
        <mxCell id="tAdImDgAZCHXtS06YGoJ-79" value="Quản lý tài khoản" style="ellipse;whiteSpace=wrap;html=1;" parent="1" vertex="1">
          <mxGeometry x="493" y="600" width="108" height="54" as="geometry" />
        </mxCell>
        <mxCell id="tAdImDgAZCHXtS06YGoJ-80" value="" style="endArrow=none;html=1;rounded=0;entryX=0.5;entryY=0.5;entryDx=0;entryDy=0;entryPerimeter=0;exitX=0;exitY=0.5;exitDx=0;exitDy=0;" parent="1" source="tAdImDgAZCHXtS06YGoJ-79" target="tAdImDgAZCHXtS06YGoJ-76" edge="1">
          <mxGeometry width="50" height="50" relative="1" as="geometry">
            <mxPoint x="404" y="561" as="sourcePoint" />
            <mxPoint x="217" y="610" as="targetPoint" />
          </mxGeometry>
        </mxCell>
        <mxCell id="tAdImDgAZCHXtS06YGoJ-81" value="" style="endArrow=none;html=1;rounded=0;entryX=0.5;entryY=0.5;entryDx=0;entryDy=0;entryPerimeter=0;" parent="1" edge="1">
          <mxGeometry width="50" height="50" relative="1" as="geometry">
            <mxPoint x="162" y="-53" as="sourcePoint" />
            <mxPoint x="52" y="-74" as="targetPoint" />
          </mxGeometry>
        </mxCell>
        <mxCell id="tAdImDgAZCHXtS06YGoJ-82" value="" style="endArrow=none;html=1;rounded=0;entryX=0.5;entryY=0.5;entryDx=0;entryDy=0;entryPerimeter=0;" parent="1" edge="1">
          <mxGeometry width="50" height="50" relative="1" as="geometry">
            <mxPoint x="172" y="-43" as="sourcePoint" />
            <mxPoint x="62" y="-64" as="targetPoint" />
          </mxGeometry>
        </mxCell>
        <mxCell id="tAdImDgAZCHXtS06YGoJ-83" value="" style="endArrow=none;html=1;rounded=0;entryX=0.5;entryY=0.5;entryDx=0;entryDy=0;entryPerimeter=0;" parent="1" edge="1">
          <mxGeometry width="50" height="50" relative="1" as="geometry">
            <mxPoint x="182" y="-33" as="sourcePoint" />
            <mxPoint x="72" y="-54" as="targetPoint" />
          </mxGeometry>
        </mxCell>
        <mxCell id="tAdImDgAZCHXtS06YGoJ-84" value="" style="endArrow=none;html=1;rounded=0;entryX=0.5;entryY=0.5;entryDx=0;entryDy=0;entryPerimeter=0;" parent="1" edge="1">
          <mxGeometry width="50" height="50" relative="1" as="geometry">
            <mxPoint x="192" y="-23" as="sourcePoint" />
            <mxPoint x="82" y="-44" as="targetPoint" />
          </mxGeometry>
        </mxCell>
        <mxCell id="tAdImDgAZCHXtS06YGoJ-85" value="" style="endArrow=none;html=1;rounded=0;entryX=0.5;entryY=0.5;entryDx=0;entryDy=0;entryPerimeter=0;" parent="1" edge="1">
          <mxGeometry width="50" height="50" relative="1" as="geometry">
            <mxPoint x="202" y="-13" as="sourcePoint" />
            <mxPoint x="92" y="-34" as="targetPoint" />
          </mxGeometry>
        </mxCell>
        <mxCell id="tAdImDgAZCHXtS06YGoJ-86" value="" style="endArrow=none;html=1;rounded=0;entryX=0.5;entryY=0.5;entryDx=0;entryDy=0;entryPerimeter=0;" parent="1" edge="1">
          <mxGeometry width="50" height="50" relative="1" as="geometry">
            <mxPoint x="212" y="-3" as="sourcePoint" />
            <mxPoint x="102" y="-24" as="targetPoint" />
          </mxGeometry>
        </mxCell>
        <mxCell id="tAdImDgAZCHXtS06YGoJ-87" value="" style="endArrow=none;html=1;rounded=0;entryX=1;entryY=0.5;entryDx=0;entryDy=0;exitX=0.5;exitY=0.5;exitDx=0;exitDy=0;exitPerimeter=0;" parent="1" source="taDVh_5EvfRSxTinrCyL-8" target="tAdImDgAZCHXtS06YGoJ-98" edge="1">
          <mxGeometry width="50" height="50" relative="1" as="geometry">
            <mxPoint x="898" y="457" as="sourcePoint" />
            <mxPoint x="788" y="436" as="targetPoint" />
          </mxGeometry>
        </mxCell>
        <mxCell id="tAdImDgAZCHXtS06YGoJ-88" value="" style="endArrow=none;html=1;rounded=0;entryX=1;entryY=0.5;entryDx=0;entryDy=0;exitX=0.5;exitY=0.5;exitDx=0;exitDy=0;exitPerimeter=0;" parent="1" source="taDVh_5EvfRSxTinrCyL-8" target="tAdImDgAZCHXtS06YGoJ-96" edge="1">
          <mxGeometry width="50" height="50" relative="1" as="geometry">
            <mxPoint x="1099" y="84" as="sourcePoint" />
            <mxPoint x="989" y="63" as="targetPoint" />
          </mxGeometry>
        </mxCell>
        <mxCell id="tAdImDgAZCHXtS06YGoJ-90" value="" style="endArrow=none;html=1;rounded=0;entryX=1;entryY=0.5;entryDx=0;entryDy=0;exitX=0.5;exitY=0.5;exitDx=0;exitDy=0;exitPerimeter=0;" parent="1" source="taDVh_5EvfRSxTinrCyL-8" target="tAdImDgAZCHXtS06YGoJ-93" edge="1">
          <mxGeometry width="50" height="50" relative="1" as="geometry">
            <mxPoint x="1119" y="104" as="sourcePoint" />
            <mxPoint x="1009" y="83" as="targetPoint" />
          </mxGeometry>
        </mxCell>
        <mxCell id="tAdImDgAZCHXtS06YGoJ-93" value="Quản lý nội dung" style="ellipse;whiteSpace=wrap;html=1;" parent="1" vertex="1">
          <mxGeometry x="655" y="249" width="108" height="54" as="geometry" />
        </mxCell>
        <mxCell id="tAdImDgAZCHXtS06YGoJ-96" value="Quản lý người dùng" style="ellipse;whiteSpace=wrap;html=1;" parent="1" vertex="1">
          <mxGeometry x="720" y="449" width="108" height="54" as="geometry" />
        </mxCell>
        <mxCell id="tAdImDgAZCHXtS06YGoJ-98" value="Xem thống kê&lt;div&gt;chỉ số diễn đàn&lt;/div&gt;" style="ellipse;whiteSpace=wrap;html=1;" parent="1" vertex="1">
          <mxGeometry x="713" y="521" width="108" height="54" as="geometry" />
        </mxCell>
        <mxCell id="tAdImDgAZCHXtS06YGoJ-102" style="edgeStyle=orthogonalEdgeStyle;rounded=0;orthogonalLoop=1;jettySize=auto;html=1;exitX=0.5;exitY=1;exitDx=0;exitDy=0;" parent="1" source="tAdImDgAZCHXtS06YGoJ-98" target="tAdImDgAZCHXtS06YGoJ-98" edge="1">
          <mxGeometry relative="1" as="geometry" />
        </mxCell>
        <mxCell id="tAdImDgAZCHXtS06YGoJ-103" value="Đăng nhập" style="ellipse;whiteSpace=wrap;html=1;" parent="1" vertex="1">
          <mxGeometry x="141" y="-179" width="108" height="54" as="geometry" />
        </mxCell>
        <mxCell id="tAdImDgAZCHXtS06YGoJ-104" value="Đăng nhập" style="ellipse;whiteSpace=wrap;html=1;" parent="1" vertex="1">
          <mxGeometry x="151" y="-169" width="108" height="54" as="geometry" />
        </mxCell>
        <mxCell id="tAdImDgAZCHXtS06YGoJ-105" value="Đăng nhập" style="ellipse;whiteSpace=wrap;html=1;" parent="1" vertex="1">
          <mxGeometry x="161" y="-159" width="108" height="54" as="geometry" />
        </mxCell>
        <mxCell id="tAdImDgAZCHXtS06YGoJ-106" value="Đăng nhập" style="ellipse;whiteSpace=wrap;html=1;" parent="1" vertex="1">
          <mxGeometry x="171" y="-149" width="108" height="54" as="geometry" />
        </mxCell>
        <mxCell id="tAdImDgAZCHXtS06YGoJ-107" value="Đăng nhập" style="ellipse;whiteSpace=wrap;html=1;" parent="1" vertex="1">
          <mxGeometry x="181" y="-139" width="108" height="54" as="geometry" />
        </mxCell>
        <mxCell id="tAdImDgAZCHXtS06YGoJ-108" value="Đăng nhập" style="ellipse;whiteSpace=wrap;html=1;" parent="1" vertex="1">
          <mxGeometry x="191" y="-129" width="108" height="54" as="geometry" />
        </mxCell>
        <mxCell id="tAdImDgAZCHXtS06YGoJ-110" value="Quản lý thẻ chủ đề" style="ellipse;whiteSpace=wrap;html=1;" parent="1" vertex="1">
          <mxGeometry x="680" y="313" width="108" height="54" as="geometry" />
        </mxCell>
        <mxCell id="tAdImDgAZCHXtS06YGoJ-113" value="" style="endArrow=none;html=1;rounded=0;entryX=1;entryY=0.5;entryDx=0;entryDy=0;exitX=0.5;exitY=0.5;exitDx=0;exitDy=0;exitPerimeter=0;" parent="1" source="taDVh_5EvfRSxTinrCyL-8" target="tAdImDgAZCHXtS06YGoJ-110" edge="1">
          <mxGeometry width="50" height="50" relative="1" as="geometry">
            <mxPoint x="976" y="507" as="sourcePoint" />
            <mxPoint x="866" y="486" as="targetPoint" />
          </mxGeometry>
        </mxCell>
        <mxCell id="tAdImDgAZCHXtS06YGoJ-114" value="Quản lý thẻ chủ đề" style="ellipse;whiteSpace=wrap;html=1;" parent="1" vertex="1">
          <mxGeometry x="720" y="377" width="108" height="54" as="geometry" />
        </mxCell>
        <mxCell id="tAdImDgAZCHXtS06YGoJ-115" value="" style="endArrow=none;html=1;rounded=0;entryX=1;entryY=0.5;entryDx=0;entryDy=0;exitX=0.5;exitY=0.5;exitDx=0;exitDy=0;exitPerimeter=0;" parent="1" source="taDVh_5EvfRSxTinrCyL-8" target="tAdImDgAZCHXtS06YGoJ-114" edge="1">
          <mxGeometry width="50" height="50" relative="1" as="geometry">
            <mxPoint x="991" y="474" as="sourcePoint" />
            <mxPoint x="881" y="453" as="targetPoint" />
          </mxGeometry>
        </mxCell>
        <mxCell id="tAdImDgAZCHXtS06YGoJ-116" value="&amp;lt;&amp;lt;extend&amp;gt;&amp;gt;" style="endArrow=open;endSize=12;dashed=1;html=1;rounded=0;" parent="1" edge="1">
          <mxGeometry width="160" relative="1" as="geometry">
            <mxPoint x="108" y="-159" as="sourcePoint" />
            <mxPoint x="11" y="-173" as="targetPoint" />
          </mxGeometry>
        </mxCell>
        <mxCell id="tAdImDgAZCHXtS06YGoJ-117" value="&amp;lt;&amp;lt;extend&amp;gt;&amp;gt;" style="endArrow=open;endSize=12;dashed=1;html=1;rounded=0;" parent="1" edge="1">
          <mxGeometry width="160" relative="1" as="geometry">
            <mxPoint x="118" y="-149" as="sourcePoint" />
            <mxPoint x="21" y="-163" as="targetPoint" />
          </mxGeometry>
        </mxCell>
        <mxCell id="GafVOxPGM3C4uiv52tbu-1" value="" style="endArrow=none;html=1;rounded=0;entryX=0;entryY=0.5;entryDx=0;entryDy=0;exitX=0.5;exitY=0.5;exitDx=0;exitDy=0;exitPerimeter=0;" edge="1" parent="1" source="taDVh_5EvfRSxTinrCyL-6" target="tAdImDgAZCHXtS06YGoJ-28">
          <mxGeometry width="50" height="50" relative="1" as="geometry">
            <mxPoint x="577" y="1004" as="sourcePoint" />
            <mxPoint x="890" y="897" as="targetPoint" />
          </mxGeometry>
        </mxCell>
        <mxCell id="GafVOxPGM3C4uiv52tbu-2" value="" style="endArrow=none;html=1;rounded=0;entryX=0;entryY=0.5;entryDx=0;entryDy=0;exitX=0.5;exitY=0.5;exitDx=0;exitDy=0;exitPerimeter=0;" edge="1" parent="1" source="taDVh_5EvfRSxTinrCyL-6" target="tAdImDgAZCHXtS06YGoJ-42">
          <mxGeometry width="50" height="50" relative="1" as="geometry">
            <mxPoint x="212" y="923" as="sourcePoint" />
            <mxPoint x="469" y="1004" as="targetPoint" />
          </mxGeometry>
        </mxCell>
      </root>
    </mxGraphModel>
  </diagram>
  <diagram id="VyXyV0iRUPrR3Ab9nQTk" name="Page-3">
    <mxGraphModel grid="1" page="1" gridSize="10" guides="1" tooltips="1" connect="1" arrows="1" fold="1" pageScale="1" pageWidth="850" pageHeight="1100" math="0" shadow="0">
      <root>
        <mxCell id="0" />
        <mxCell id="1" parent="0" />
      </root>
    </mxGraphModel>
  </diagram>
</mxfile>
